<svg width="186" height="175" viewBox="0 0 186 175" fill="none" xmlns="http://www.w3.org/2000/svg">
<path d="M150.827 33.0925C134.143 17.395 111.953 8.75 88.35 8.75C64.7466 8.75 42.5661 17.395 25.8726 33.0925C9.1791 48.79 0 69.6675 0 91.8662C0 114.065 9.1884 134.942 25.8726 150.649C42.5568 166.355 64.7466 174.991 88.35 174.991C111.953 174.991 134.134 166.346 150.827 150.649C167.521 134.951 176.7 114.074 176.7 91.8662C176.7 69.6587 167.512 48.79 150.827 33.0925V33.0925ZM88.35 166.25C44.7609 166.25 9.3 132.886 9.3 91.875C9.3 50.8638 44.7609 17.5 88.35 17.5C131.939 17.5 167.4 50.8638 167.4 91.875C167.4 132.886 131.939 166.25 88.35 166.25Z" fill="white"/>
<path d="M74.4 140C73.2096 140 72.0192 139.571 71.1078 138.723C69.2943 137.016 69.2943 134.243 71.1078 132.536L114.316 91.8838L71.1078 51.2313C69.2943 49.525 69.2943 46.7513 71.1078 45.045C72.9213 43.3388 75.8694 43.3388 77.6829 45.045L124.183 88.795C125.996 90.5013 125.996 93.275 124.183 94.9813L77.6829 138.731C76.7715 139.589 75.5811 140.009 74.3907 140.009L74.4 140Z" fill="white"/>
</svg>
